# xmcd
# 
# Track frame offsets:
#   150
#   18663
#   38699
#   51680
#   64057
#   77857
#   92088
#   109630
#   119094
#   131490
#   140569
#   149409
#   161354
#   174518
#   193568
#   207286
# 
# Disc length: 3120 seconds
# 
# Revision: 1
# Processed by: cddbd v1.5.2PL0 Copyright (c) Steve Scherf et al.
# Submitted via: Synapstar 1.0 
# 
DISCID=ec0c2e10
DTITLE=Tanya Tucker - Live At Billy Bob큦 Texas
DYEAR=2005
DGENRE=Country
TTITLE0=Some Kind Of Trouble
TTITLE1=I큞l Come Back As Another Woman
TTITLE2=It Wont Be Me
TTITLE3=Strong Enough To Bend
TTITLE4=San Antonio Stroll
TTITLE5=Hangin In
TTITLE6=Lizzie And Rainman
TTITLE7=The Jamestown Ferry
TTITLE8=What큦 Your Mama큦 Name Child
TTITLE9=Blood Red And Going Down
TTITLE10=Would You Lay With Me
TTITLE11=Walking Shoes
TTITLE12=Down To My Last Teardrop
TTITLE13=Two Sparrows In A Hurricane
TTITLE14=It큦 A Little Too Late
TTITLE15=Delta Dawn
EXTD=MediaType: Audio CD Producer: Unknown
EXTT0=
EXTT1=
EXTT2=
EXTT3=
EXTT4=
EXTT5=
EXTT6=
EXTT7=
EXTT8=
EXTT9=
EXTT10=
EXTT11=
EXTT12=
EXTT13=
EXTT14=
EXTT15=
PLAYORDER=
